<?xml version="1.0" standalone="no"?>
<!DOCTYPE svg PUBLIC "-//W3C//DTD SVG 20010904//EN"
 "http://www.w3.org/TR/2001/REC-SVG-20010904/DTD/svg10.dtd">
<svg version="1.0" xmlns="http://www.w3.org/2000/svg"
 width="38.000000pt" height="38.000000pt" viewBox="0 0 46.000000 53.000000"
 preserveAspectRatio="xMidYMid meet">

<g transform="translate(0.000000,53.000000) scale(0.100000,-0.100000)"
fill="#000000" stroke="none">
<path d="M17 482 c-15 -16 -17 -46 -17 -211 0 -113 4 -200 10 -212 10 -18 23
-19 215 -19 192 0 205 1 215 19 6 12 10 99 10 214 0 175 -2 195 -18 210 -16
15 -46 17 -209 17 -171 0 -192 -2 -206 -18z m184 -143 c21 -21 21 -22 3 -32
-13 -7 -19 -7 -22 1 -6 18 -59 15 -66 -4 -11 -28 -6 -71 9 -84 12 -10 21 -10
44 0 39 16 58 5 36 -20 -58 -64 -156 1 -138 91 12 62 92 90 134 48z m86 -41
l17 -63 19 63 c14 48 23 62 38 62 25 0 24 -11 -8 -102 -23 -65 -31 -78 -50
-78 -18 0 -25 12 -47 78 -31 93 -32 102 -7 102 16 0 24 -13 38 -62z"/>
</g>
</svg>
