<?xml version="1.0" standalone="no"?>
<!DOCTYPE svg PUBLIC "-//W3C//DTD SVG 20010904//EN"
 "http://www.w3.org/TR/2001/REC-SVG-20010904/DTD/svg10.dtd">
<svg version="1.0" xmlns="http://www.w3.org/2000/svg"
 width="38pt" height="38pt" viewBox="0 0 40.000000 40.000000"
 preserveAspectRatio="xMidYMid meet">

<g transform="translate(0.000000,40.000000) scale(0.100000,-0.100000)"
fill="#000000" stroke="none">
<path d="M5 387 c-3 -7 -4 -96 -3 -197 l3 -185 195 0 195 0 0 195 0 195 -193
3 c-151 2 -194 0 -197 -11z m99 -43 c20 -19 20 -29 0 -48 -18 -19 -20 -19 -45
-6 -21 12 -25 40 -7 58 16 16 33 15 52 -4z m227 -103 c21 -17 24 -29 27 -110
l4 -91 -36 0 -36 0 0 75 c0 61 -3 77 -16 82 -35 13 -49 -11 -52 -86 l-3 -71
-34 0 -35 0 0 105 0 105 35 0 c19 0 35 -5 35 -11 0 -5 10 -3 22 5 30 21 61 20
89 -3z m-221 -96 l0 -105 -30 0 -30 0 0 105 0 105 30 0 30 0 0 -105z"/>
</g>
</svg>
