<?xml version="1.0" standalone="no"?>
<!DOCTYPE svg PUBLIC "-//W3C//DTD SVG 20010904//EN"
 "http://www.w3.org/TR/2001/REC-SVG-20010904/DTD/svg10.dtd">
<svg version="1.0" xmlns="http://www.w3.org/2000/svg"
 width="38.000000pt" height="38.000000pt" viewBox="0 0 40.000000 40.000000"
 preserveAspectRatio="xMidYMid meet">

<g transform="translate(0.000000,40.000000) scale(0.100000,-0.100000)"
fill="#000000" stroke="none">
<path d="M115 376 c-94 -42 -140 -165 -96 -261 33 -74 131 -137 131 -85 0 15
-7 20 -24 20 -16 0 -32 11 -46 31 -28 39 -21 46 14 14 22 -20 31 -23 47 -15
22 12 25 30 5 30 -8 0 -27 11 -42 24 -30 25 -34 57 -19 139 7 35 29 49 48 30
10 -9 128 -10 134 0 2 4 12 7 22 7 20 0 32 -39 34 -114 1 -31 -5 -44 -27 -62
-15 -13 -34 -24 -43 -24 -10 0 -13 -6 -9 -16 3 -9 6 -31 6 -50 0 -45 26 -46
76 -2 45 40 74 99 74 153 0 74 -57 159 -123 184 -39 15 -126 13 -162 -3z"/>
</g>
</svg>
